<svg width="32" height="36" viewBox="0 0 32 36" fill="none" xmlns="http://www.w3.org/2000/svg">
<path d="M15.8177 0L15.9964 0.0882353L16.1751 0.661765L16.7113 1.72059L17.2028 2.51471L17.6496 3.08824L18.1412 3.61765L18.5433 4.14706L18.8114 4.80882L18.9008 5.20588V6.26471L18.722 7.14706L18.9008 7.36765V7.45588L18.3199 7.41176L18.3646 7.54412L18.5433 7.67647V7.76471L18.0071 7.89706L17.9177 7.94118L18.0071 8.11765L18.1858 8.29412V8.38235L17.9624 8.33824L17.5603 8.29412L17.4709 8.47059L17.5156 8.69118L17.6943 8.91176V9.17647L17.5156 9.39706V9.52941L18.4539 9.70588L18.588 9.79412L18.6327 11.0294L19.9285 11.4265L20.8221 11.8235L21.537 12.1765L22.0285 12.4412L22.7882 12.9706L23.5478 13.5882L23.9499 13.8971L24.0393 13.7206L24.3074 13.3235L24.352 13.1912V12.8382L24.1733 12.3529L23.9946 12.0882L23.6371 11.7794L23.1456 11.6029H22.386L21.403 11.6912L20.554 11.6471L20.1966 11.4706L19.9285 11.25L19.705 10.8971L19.6157 10.6324V9.92647L19.7497 9.52941L20.0178 9.17647L20.42 8.82353L21.0455 8.47059L21.1796 8.25V8.16176L20.5093 8.20588L20.2412 7.89706L20.2859 7.58824L20.3753 7.41176L20.2859 7.14706L20.2412 7.05882V6.75L20.3306 6.48529L20.5093 6.52941L20.7327 6.83824L20.8668 6.92647V7.01471L21.0455 7.10294L21.537 7.41176L21.8945 7.76471L22.1179 8.25L22.1626 8.42647V9.66176L22.2966 9.52941L22.6541 9.04412L22.8328 8.95588L22.8775 9L22.9669 9.48529L23.235 9.88235L23.9946 10.3676L24.4861 10.7206L24.8436 11.0735L25.201 11.6912L25.4244 12.3971L25.4691 13.1029L25.3797 13.6324L25.1563 14.1618L24.8882 14.5588L24.7542 14.6912L24.8436 14.9118L25.3351 15.5294L25.8266 16.2794L26.184 16.8971L26.3181 17.1618L26.4521 16.5L26.7649 16.0147H26.8543V15.9265L27.3011 15.6618L27.8373 15.4853L28.0607 15.6176L28.4628 15.5735L28.865 15.6618H29.2671L29.2225 15.4412L28.865 15.1765L28.7756 14.9118L28.9544 14.6029L29.3118 14.4265L29.4905 14.0294L29.6693 13.8088L29.8927 13.7647L29.9374 13.9412L30.0267 14.8676L30.1608 15.4412V15.75L30.0267 16.1471L29.7586 16.5882L29.3565 17.0294L29.3118 17.1176H29.2225L29.1331 17.2941L29.6693 17.2059H30.0267L29.7586 17.8676V18.2647L30.1161 19.6765V20.1618L29.8927 21L29.5799 21.6176L29.1778 22.0588L28.8203 22.3676L28.3288 22.5882L27.6139 22.7647H27.4351V23.2059L27.2117 24.5294L26.9883 25.4559L26.8543 25.8971L27.2117 25.6324L27.5245 25.5L27.7479 25.4559H28.1501L28.5969 25.5882L28.9544 25.8088L29.1778 26.0294L29.4905 26.3824L29.8033 26.8235H30.0267L29.9821 26.5147L29.9374 26.2941L30.0714 26.0735L30.3395 25.8529L30.6523 25.9853H30.831L31.2332 25.8088H31.5906L31.68 25.9853L31.5013 26.2059H31.4119L31.3225 26.3824L31.0098 26.8676L30.7417 27.3088L30.3395 27.6618L29.848 27.8382L29.2225 27.9265H28.6863L28.865 28.1029L29.3565 28.4118L29.3118 28.5882L28.865 28.7647L28.5969 28.9412L28.2394 29.5588L27.7479 30.3971L27.3458 30.7941L26.899 31.1029L26.2734 31.3676L25.6478 31.5H25.1116L24.5755 31.3676L23.8605 31.0588L23.5031 30.8382L23.2797 30.9706L22.7435 31.4118L22.0732 31.8529L21.537 32.1618L21.4924 32.25L21.8498 32.2941L22.3413 32.5588L22.6541 32.9118L22.8328 33.2647L22.9222 33.6618L22.8775 34.2794L22.7882 34.9412V35.0735H23.0562L23.1456 34.8088L23.1903 34.7206H23.2797V34.6324L23.369 34.5882H23.7265L23.9499 34.8088L24.0393 35.0294L24.4414 35.1618L24.7542 35.4706V35.6471L23.8605 35.7353L23.1456 35.9118H22.6094L22.1179 35.7353L21.7158 35.4265L21.2689 35.0294L21.1349 34.9853L21.2689 35.3824L21.3136 35.8235L21.1796 35.8676L20.8668 35.6912L20.4647 35.6029L20.1072 35.6471L19.2135 35.9118L18.9008 36H17.9624L17.4709 35.8676L17.0688 35.6912L16.6219 35.4265L16.1751 35.0294L15.907 34.6324L15.6836 34.8529L15.2368 35.3382L14.7453 35.6471L14.3878 35.8235L13.6729 36H12.8239L12.109 35.7794L11.4388 35.6029L10.9919 35.6471L10.6792 35.7794L10.4557 35.8676L10.4111 35.6471L10.5451 35.1176L10.6345 34.9412L10.3664 35.1176L10.1876 35.2059V35.2941L9.65145 35.6912L9.38336 35.8235L9.02589 35.9118H8.53439L7.64073 35.6912L6.97049 35.6471L6.92581 35.5588L7.23859 35.1618L7.50668 35.0735H7.7301L7.81946 34.6765L7.99819 34.5882H8.35566L8.53439 34.7206L8.62375 35.0735H8.93653L8.80248 34.1471V33.5735L8.98121 33.0441L9.24931 32.6912L9.60677 32.4265L9.96423 32.25L10.1876 32.2059L9.69613 31.8971L8.98121 31.4118L8.31097 30.8824L8.04288 30.9265L7.32795 31.2794L7.01518 31.4118L6.61303 31.5H6.03216L5.31724 31.3235L4.69168 31.0147L4.28953 30.7059L3.88739 30.2647L3.44056 29.4265L3.12779 28.9412L2.77032 28.7206L2.3235 28.5441L2.36818 28.4118L2.94905 28.0588L3.0831 27.9265H2.50223L1.83199 27.8382L1.42984 27.7059L0.983018 27.3088L0.714922 26.8676L0.402144 26.3824L0 25.9853L0.0446826 25.8529L0.178731 25.8088H0.491509L0.84897 25.9853H1.07238L1.16175 25.8971H1.42984L1.69794 26.0735L1.74262 26.1618V26.4706L1.60858 26.8235H1.87667L2.23413 26.4265L2.63628 25.8971L3.03842 25.6324L3.3512 25.5L3.57461 25.4559H3.97676L4.42358 25.5882L4.87041 25.8529L4.69168 25.3676L4.42358 24.1765L4.28953 23.25V22.7647L3.84271 22.7206L3.17247 22.5L2.68096 22.1912L2.27882 21.7941L1.96604 21.3088L1.69794 20.6471L1.60858 19.9853L1.65326 19.4559L1.92135 18.4412L1.96604 17.9559L1.83199 17.5147L1.65326 17.25V17.1618L2.10008 17.2059L2.59159 17.3382L2.45755 17.1176L2.10008 16.7647L1.69794 16.1912L1.56389 15.7941V15.3529L1.74262 14.5147V13.8088L1.92135 13.7647L2.27882 14.0735L2.41286 14.4265V14.5147L2.68096 14.5588L2.90437 14.7794V15.1765L2.68096 15.3529L2.45755 15.4412V15.6618L3.12779 15.6176L3.3512 15.5294L3.48525 15.6176L3.93207 15.5294L4.51295 15.7059L5.00446 16.0588L5.27255 16.5L5.36192 16.7647L5.4066 17.2059L5.89811 16.2794L6.56835 15.3088L6.97049 14.8235L6.88113 14.6029L6.56835 14.1618L6.34494 13.6324L6.25557 13.1471V12.7059L6.38962 12.0441L6.61303 11.5147L6.92581 11.0294L7.01518 10.8971H7.10454L7.19391 10.7206L8.40034 9.92647L8.62375 9.70588L8.80248 9.30882L8.84716 8.95588L9.02589 9L9.38336 9.44118L9.5174 9.61765L9.56209 8.38235L9.74082 7.89706L10.0536 7.5L10.7685 7.01471L11.0813 6.70588L11.2153 6.48529H11.4388L11.4834 6.70588V7.05882L11.3494 7.32353L11.3941 7.54412L11.4834 7.63235V7.94118L11.3047 8.16176L11.0366 8.25L10.6345 8.16176H10.5451L10.6345 8.42647L11.4834 8.95588L11.7962 9.26471L12.0196 9.61765L12.1537 10.1471L12.109 10.6324L11.9303 11.0735L11.6175 11.4265L11.26 11.6029L10.8579 11.6912H10.277L9.33867 11.6029H8.53439L8.08756 11.7794L7.68542 12.1324L7.41732 12.6618L7.37264 12.8382V13.1912L7.59605 13.6324L7.77478 13.8088L7.95351 13.7647L8.53439 13.2794L9.11526 12.8382L10.0089 12.2647L10.9472 11.7794L11.6622 11.4706L12.4665 11.2059L13.092 11.0294L13.1367 9.83824L13.2261 9.70588L13.8963 9.61765L14.1644 9.48529L14.2091 9.39706L14.075 9.17647L14.0304 9.13235V8.91176L14.2091 8.69118L14.2538 8.47059L14.2091 8.29412H13.8963L13.5835 8.42647L13.5388 8.29412L13.7623 8.07353H13.8516L13.8069 7.89706L13.2707 7.80882L13.1814 7.76471V7.63235L13.4495 7.54412L13.4048 7.45588H12.8239L12.9133 7.23529L12.958 7.19118L12.9133 6.79412L12.8239 6.26471V5.20588L12.958 4.67647L13.1814 4.14706L13.6282 3.57353L14.1197 3.04412L14.7006 2.25L15.2368 1.27941L15.5942 0.529412L15.6836 0.132353L15.8177 0ZM15.4155 3.88235L15.0134 4.41176L14.7006 5.02941L14.6112 5.25L14.5665 5.51471V5.86765L14.7006 6.26471L14.9687 6.57353L15.3708 6.75H15.5049V5.69118L16.0858 5.77941L16.1304 5.60294L15.6836 5.47059L15.5049 5.42647V3.88235H15.4155ZM16.2198 3.88235V6.75L16.4879 6.70588L16.8454 6.48529L17.0241 6.26471L17.1581 5.91176V5.47059L16.9347 4.80882L16.6219 4.27941L16.3092 3.88235H16.2198ZM16.3092 12.8382L16.2645 12.9706V14.25L16.3985 15.0882L16.5773 15.6176L16.7113 15.8382L16.6666 16.0147L16.4879 16.5L16.3538 17.25V19.1471L16.3985 19.2353L17.1135 19.4559L17.5603 19.7206L17.739 19.6324L18.0965 19.2794L18.4539 18.9706L18.9901 18.3971L19.437 17.8235L19.6604 17.4265L19.7944 17.1176L20.3753 16.8088L21.0902 16.2794L21.6264 15.7941L22.1626 15.2647L21.8945 14.9559L21.1796 14.4265L20.5093 14.0294L19.7497 13.6324L19.0795 13.3676L18.2305 13.1029L17.0241 12.8824L16.3092 12.8382ZM15.1027 12.8382L13.8963 13.0147L12.8686 13.2794L11.9303 13.6324L10.9919 14.1176L10.0983 14.7353L9.60677 15.1324L9.47272 15.2647L10.0983 15.9265L10.4111 16.2353L10.9919 16.6765L11.6175 17.0294L11.9303 17.1618L12.3771 17.9559L12.958 18.6618L13.8069 19.5L14.075 19.7206L14.2984 19.6324L14.8346 19.3676L15.3261 19.2353L15.3708 18.9265V17.4265L15.2368 16.5L15.0581 15.9706L15.0134 15.7941L15.1921 15.3971L15.3261 14.5147L15.3708 13.7647V13.0147L15.3261 12.8382H15.1027ZM22.7882 15.9265L22.3413 16.3235L21.8945 16.7647L21.403 17.4265L21.0902 17.9559L20.9562 18.3529L20.4647 18.5294L20.0178 18.8382L19.571 19.1912L19.0348 19.6765L18.6773 20.0294L18.3646 20.4265L18.4539 20.6471L18.6773 21.1324L18.8561 21.6618L18.9008 21.7059H20.554L21.1796 21.6618L21.8945 21.4853L22.252 21.3529L23.0116 21.5735L23.5031 21.6618L24.2627 21.7059H25.201L25.2904 21.6618V21.2206L25.1563 20.3382L24.8882 19.3235L24.5308 18.4412L24.0839 17.5147L23.6371 16.8088L23.235 16.3235L22.9222 15.9265H22.7882ZM8.80248 15.9706L8.57907 16.1471L7.99819 16.9412L7.462 17.8235L7.10454 18.5735L6.83645 19.2794L6.56835 20.2941L6.38962 21.4412V21.7059H7.462L8.22161 21.6618L9.07058 21.4853L9.47272 21.3529L10.143 21.5735L10.5451 21.6618L11.3047 21.7059H12.7346L12.8686 21.6618L13.1367 20.9118L13.3601 20.5147L13.3154 20.3382L12.109 19.1471L11.5281 18.7059L10.9919 18.3971L10.7685 18.3088L10.3664 17.6029L9.91955 17.0294L9.38336 16.4559L8.93653 16.0147L8.80248 15.9706ZM26.5415 17.7353L26.6755 18.1324L26.899 18.75L27.1671 19.8088L27.3458 20.7353L27.4351 21.6618L27.8373 21.6176L28.3735 21.3971L28.6416 21.0882L28.7756 20.7353L28.8203 20.4706V20.1176L28.6863 19.5882L28.4182 19.2353L28.0607 18.9265L27.5692 18.6176L27.1224 18.2647L26.9436 18.1765L26.8543 18L26.5415 17.7353ZM5.09382 17.8235L4.69168 18.2206L4.02144 18.7059L3.39588 19.1471L3.0831 19.5441L2.94905 19.8971L2.90437 20.4706L3.03842 21L3.26183 21.3529L3.61929 21.5294L4.06612 21.6618H4.24485L4.28953 21.5735L4.3789 20.6471L4.647 19.3676L5.00446 18.2206L5.1385 17.8235H5.09382ZM15.6389 20.6912L15.1921 20.8235L14.8346 21.0882L14.6112 21.3529L14.4325 21.6618L14.3878 21.8824V22.5L14.5665 22.9412L14.9687 23.3824L15.4155 23.6029L15.6389 23.6471H16.0411L16.4879 23.5147L16.89 23.25L17.2028 22.8971L17.2922 22.6765L17.3369 22.4118V21.9706L17.2028 21.4853L16.9347 21.1324L16.6666 20.9118L16.2645 20.7353L15.9964 20.6912H15.6389ZM6.38962 22.5882L6.4343 23.3382L6.65771 24.4412L6.92581 25.3235L7.32795 26.25L7.59605 26.7794L8.22161 27.7059L8.7578 28.3676H8.93653L9.24931 28.0147L9.7855 27.4853L10.3664 26.7353L10.6345 26.2941L10.7238 26.0735L11.26 25.8088L11.8856 25.3676L12.3324 24.9706L12.8686 24.4853L13.092 24.2647V24.1765L13.2707 24.0882L13.3601 23.8676L13.0473 23.25L12.8686 22.7206L12.8239 22.6765H10.8579L10.0089 22.8088L9.60677 22.9853L9.47272 23.0294L9.02589 22.8088L8.26629 22.6324L7.86415 22.5882H6.38962ZM23.8159 22.5882L23.1903 22.6765L22.5647 22.8529L22.2966 23.0294L22.1179 22.9853L21.6711 22.8088L20.7327 22.6765H18.9008L18.6773 23.2059L18.3646 23.8235L18.4093 24L18.9008 24.5294L19.3923 25.0147L19.7497 25.3235L20.3753 25.7647L20.9115 26.0294H21.0008L21.1349 26.4706L21.403 26.9559L21.9839 27.6618L22.7882 28.4559L22.9669 28.3676L23.2797 28.0147L23.7712 27.3529L24.218 26.6029L24.7095 25.5441L25.0223 24.5735L25.201 23.7794L25.3351 22.7647V22.5882H23.8159ZM14.0304 24.6618L13.4048 25.2794L13.1367 25.5V25.5882H13.0473V25.6765H12.958L12.4665 26.2941L12.109 26.8676L11.9303 27.2206L11.3941 27.4412L10.7685 27.8382L10.143 28.3676L9.65145 28.8529L9.5174 29.0735L9.91955 29.4706L10.5898 29.9559L11.26 30.3529L11.9749 30.7059L12.6899 31.0147L13.5835 31.2794L14.5219 31.4559L15.3261 31.5L15.3708 31.2353V30.3529L15.2815 29.4265L15.1027 28.7206L15.0134 28.4559L15.1921 28.0588L15.3261 27.3529L15.3708 26.8235V25.3676L15.3261 25.1029L14.8346 24.9706L14.2091 24.6618H14.0304ZM17.5156 24.6618L16.89 24.9706L16.3985 25.1029L16.3538 25.3235V27.0441L16.4879 27.8824L16.6666 28.3676L16.7113 28.5441L16.4879 28.9853L16.3538 29.4706L16.2645 30.1324V31.5L17.2028 31.4559L18.2305 31.2353L18.9454 31.0147L19.6604 30.75L20.554 30.3088L21.403 29.7794L21.9392 29.3382L22.1626 29.1618L22.0732 28.9853L21.3136 28.2353L20.6881 27.75L20.0625 27.3529L19.7497 27.1765L19.5263 26.6471L19.0795 26.0735L18.588 25.5441L18.2752 25.2353L18.0518 24.9706L17.6943 24.6618H17.5156ZM5.18319 26.7353V27.2206L5.00446 28.1912L4.91509 28.6324V29.1176L5.04914 29.5588L5.31724 29.9559L5.6747 30.2647L6.16621 30.4412H6.47898L7.01518 30.2206L7.32795 30.0441L7.28327 29.8235L6.83645 29.3382L6.25557 28.5441L5.71938 27.7059L5.27255 26.7794L5.18319 26.7353ZM26.4521 26.7794L26.0947 27.4853L25.6478 28.2794L25.1563 28.9853L24.7989 29.4265L24.3967 29.9118L24.4861 30.0882L25.067 30.3971L25.5138 30.4412L25.9606 30.3088L26.3628 30L26.6755 29.6029L26.8096 29.1618V28.6324L26.5415 27.3529L26.4968 26.7794H26.4521ZM11.5281 32.8235L11.6175 33.0441L11.9749 33.5294L12.4218 34.1912L12.7346 34.5L13.1814 34.7206L13.4048 34.7647H13.8963L14.3431 34.6324L14.7453 34.3676L14.924 33.9706L14.9687 33.5735L13.9857 33.4412L13.0473 33.2647L12.109 33L11.7069 32.8235H11.5281ZM20.1519 32.7794L19.571 33L18.4093 33.3088L16.8007 33.5735L16.7113 33.6618L16.89 34.1912L17.0241 34.4118L17.3369 34.6324L17.7837 34.7647H18.2305L18.6327 34.6765L19.0795 34.4118L19.3029 34.1912L19.705 33.6176L20.1519 32.9559L20.2412 32.7794H20.1519Z" fill="#FF6260"/>
</svg>
